<svg width="400" height="400" viewBox="0 0 400 400" fill="none" xmlns="http://www.w3.org/2000/svg">
<path d="M239.833 183.333L266.667 210.167V183.333H239.833ZM283.333 116.667H216.667V148.333H283.333C311.833 148.333 335 171.5 335 200C335 221.167 322.167 239.5 303.833 247.333L327.167 270.667C339.229 263.232 349.19 252.837 356.104 240.469C363.017 228.1 366.653 214.169 366.667 200C366.667 154 329.333 116.667 283.333 116.667ZM33.3333 71.1666L85.1666 123C69.8531 129.231 56.7435 139.883 47.5114 153.598C38.2792 167.313 33.3431 183.467 33.3333 200C33.3333 246 70.6666 283.333 116.667 283.333H183.333V251.667H116.667C88.1666 251.667 64.9999 228.5 64.9999 200C64.9999 173.5 85.1666 151.667 111 148.833L145.5 183.333H133.333V216.667H178.833L216.667 254.5V283.333H245.5L312.333 350.167L335.833 326.667L56.8333 47.6666L33.3333 71.1666Z" fill="#D9D9D9"/>
</svg>
