<svg width="400" height="400" viewBox="0 0 400 400" fill="none" xmlns="http://www.w3.org/2000/svg">
<path d="M283.333 116.667H216.667V150H283.333C310.833 150 333.333 172.5 333.333 200C333.333 227.5 310.833 250 283.333 250H216.667V283.333H283.333C329.333 283.333 366.667 246 366.667 200C366.667 154 329.333 116.667 283.333 116.667ZM183.333 250H116.667C89.1667 250 66.6667 227.5 66.6667 200C66.6667 172.5 89.1667 150 116.667 150H183.333V116.667H116.667C70.6667 116.667 33.3334 154 33.3334 200C33.3334 246 70.6667 283.333 116.667 283.333H183.333V250ZM133.333 183.333H266.667V216.667H133.333V183.333Z" fill="#3E8ED0"/>
</svg>
